<svg width="82" height="87" viewBox="0 0 82 87" fill="none" xmlns="http://www.w3.org/2000/svg">
<path d="M10.2113 43.2022C10.2309 38.9396 11.0367 34.7229 12.5826 30.7929C14.1284 26.8628 16.3841 23.2963 19.2209 20.2971C22.0576 17.2979 25.4198 14.9246 29.1155 13.3128C32.8112 11.7009 36.7681 10.8822 40.7602 10.9032C44.7523 10.9241 48.7014 11.7845 52.3821 13.4351C56.0627 15.0857 59.4029 17.4942 62.2118 20.5232C65.0207 23.5521 67.2434 27.1421 68.753 31.0883C70.2625 35.0344 71.0293 39.2593 71.0097 43.5219L40.6105 43.362L10.2113 43.2022Z" fill="url(#paint0_linear_4_55)"/>
<path d="M50.5568 28.089C49.7112 28.089 48.8997 28.2478 48.1469 28.5384C47.1337 26.0969 46.409 23.5403 46.7297 21.743C46.7941 21.3813 46.7043 21.0077 46.4844 20.7241C46.2646 20.4405 45.9378 20.2763 45.5931 20.2763H42.1909C41.5519 20.2763 41.0338 20.8295 41.0338 21.5118C41.0338 22.1941 41.5519 22.7473 42.1909 22.7473H44.342C44.3453 23.086 44.3669 23.4386 44.4064 23.8046C44.3587 23.8566 44.314 23.9129 44.2743 23.9751L41.2197 28.7728C41.1537 28.7603 41.086 28.7527 41.0166 28.7527H34.881L33.9154 26.3678C33.9528 26.3717 33.99 26.3743 34.0272 26.3743C34.5125 26.3743 34.9645 26.0457 35.1254 25.5268C35.3263 24.8791 34.9973 24.1801 34.3907 23.9656C32.6985 23.3673 30.8785 23.2392 29.1275 23.5954C28.4998 23.723 28.0877 24.3699 28.2074 25.0402C28.3269 25.7104 28.9328 26.1503 29.5605 26.0227C30.0995 25.913 30.6468 25.8633 31.1931 25.8707L32.1904 28.334C31.6172 28.1742 31.0161 28.089 30.3967 28.089C26.4769 28.089 23.288 31.494 23.288 35.6793C23.288 39.8647 26.4769 43.2696 30.3967 43.2696C33.9224 43.2696 36.8564 40.5144 37.4107 36.9147H38.2216C38.6047 36.9147 38.9631 36.7122 39.1786 36.3738L45.117 27.0467C45.3832 27.8994 45.7178 28.8021 46.1204 29.7531C44.4926 31.1453 43.4481 33.2843 43.4481 35.6793C43.4481 39.8645 46.637 43.2696 50.5568 43.2696C54.4765 43.2696 57.6655 39.8646 57.6655 35.6793C57.6654 31.494 54.4765 28.089 50.5568 28.089ZM30.3967 36.9148H35.0492C34.5301 39.1427 32.6415 40.7988 30.3967 40.7988C27.7529 40.7988 25.6021 38.5022 25.6021 35.6793C25.6021 32.8565 27.7529 30.56 30.3967 30.56C32.6415 30.56 34.5301 32.2161 35.0492 34.4438H30.3967C29.7576 34.4438 29.2396 34.997 29.2396 35.6793C29.2396 36.3616 29.7576 36.9148 30.3967 36.9148ZM37.6091 34.4438H37.4107C37.2277 33.2554 36.7854 32.1591 36.1478 31.2236H39.6594L37.6091 34.4438ZM50.5568 40.7987C47.9131 40.7987 45.7623 38.5022 45.7623 35.6793C45.7623 34.2623 46.3044 32.9782 47.1788 32.0502C48.3958 34.5036 49.5499 36.2966 49.6045 36.3812C49.8291 36.7286 50.1903 36.915 50.5578 36.915C50.7845 36.915 51.0135 36.8441 51.2142 36.6961C51.7401 36.3084 51.8722 35.539 51.5091 34.9775C50.9318 34.0845 50.0332 32.5497 49.165 30.7806C49.6058 30.6375 50.0729 30.5599 50.5568 30.5599C53.2005 30.5599 55.3514 32.8564 55.3514 35.6793C55.3514 38.502 53.2005 40.7987 50.5568 40.7987Z" fill="black"/>
<rect x="6.65369" y="46.5741" width="8.13229" height="4.34165" fill="url(#paint1_linear_4_55)"/>
<rect x="27" y="47" width="8.13229" height="4.34165" fill="url(#paint2_linear_4_55)"/>
<rect x="47" y="47" width="8.13229" height="4.34165" fill="url(#paint3_linear_4_55)"/>
<rect x="66.5369" y="46.5741" width="8.50194" height="4.34165" fill="url(#paint4_linear_4_55)"/>
<defs>
<linearGradient id="paint0_linear_4_55" x1="67.9701" y1="29.2133" x2="11.9427" y2="54.6268" gradientUnits="userSpaceOnUse">
<stop stop-color="#F796FF"/>
<stop offset="1" stop-color="#96D9FF" stop-opacity="0"/>
</linearGradient>
<linearGradient id="paint1_linear_4_55" x1="10.7198" y1="46.5741" x2="10.7198" y2="50.9157" gradientUnits="userSpaceOnUse">
<stop stop-color="#F796FF"/>
<stop offset="1" stop-color="#7986FB" stop-opacity="0"/>
</linearGradient>
<linearGradient id="paint2_linear_4_55" x1="31.0661" y1="47" x2="31.0661" y2="51.3416" gradientUnits="userSpaceOnUse">
<stop stop-color="#F796FF"/>
<stop offset="1" stop-color="#7986FB" stop-opacity="0"/>
</linearGradient>
<linearGradient id="paint3_linear_4_55" x1="51.0661" y1="47" x2="51.0661" y2="51.3416" gradientUnits="userSpaceOnUse">
<stop stop-color="#F796FF"/>
<stop offset="1" stop-color="#7986FB" stop-opacity="0"/>
</linearGradient>
<linearGradient id="paint4_linear_4_55" x1="70.7879" y1="46.5741" x2="70.7879" y2="50.9157" gradientUnits="userSpaceOnUse">
<stop stop-color="#F796FF"/>
<stop offset="1" stop-color="#7986FB" stop-opacity="0"/>
</linearGradient>
</defs>
</svg>
