<svg width="54" height="54" viewBox="0 0 54 54" fill="none" xmlns="http://www.w3.org/2000/svg">
<circle cx="27" cy="27" r="26.5" fill="#4ADDFF" stroke="#C6C6C6"/>
<path d="M43.7579 43.5347C40.4655 46.827 36.2709 49.0691 31.7043 49.9774C27.1378 50.8858 22.4044 50.4196 18.1028 48.6378C13.8011 46.856 10.1245 43.8386 7.53774 39.9673C4.95099 36.0959 3.57031 31.5445 3.57031 26.8884C3.57031 22.2324 4.95099 17.6809 7.53774 13.8096C10.1245 9.93823 13.8011 6.92088 18.1028 5.13909C22.4044 3.35731 27.1377 2.89111 31.7043 3.79946C36.2709 4.7078 40.4655 6.9499 43.7579 10.2422C21.776 8.28607 61.4753 27.8926 27.1116 26.8884C-7.252 25.8843 17.8766 48.7796 43.7579 43.5347Z" fill="#F79FFF"/>
<g style="mix-blend-mode:screen">
<path d="M33.572 15.2783C33.3897 16.3693 33.5064 17.6721 33.8014 19.0474C34.097 20.426 34.5755 21.8944 35.1309 23.3237L35.2233 23.5615L35.4592 23.4643C36.2511 23.1379 37.1036 22.9598 37.9919 22.9598C42.0984 22.9598 45.4936 26.7813 45.4937 31.5491C45.4937 36.3169 42.0983 40.1384 37.9919 40.1384C33.8854 40.1384 30.4901 36.3168 30.4901 31.5491C30.4901 28.8273 31.6017 26.4043 33.3228 24.8324L33.4501 24.716L33.3866 24.5557C32.95 23.4543 32.5878 22.4105 32.3 21.4258L32.139 20.8752L31.8453 21.3679L25.3862 32.202L25.3834 32.2047C25.367 32.2205 25.3427 32.2434 25.3122 32.2711C25.2508 32.3267 25.1654 32.4003 25.0686 32.4734C24.9711 32.547 24.8669 32.6162 24.7678 32.6661C24.6645 32.718 24.5883 32.7379 24.5408 32.7379H23.6565H23.4399L23.409 32.9522C22.8184 37.0485 19.7027 40.1384 16.0079 40.1384C11.9014 40.1384 8.5061 36.317 8.5061 31.5492C8.5061 26.7813 11.9014 22.9598 16.0079 22.9598C16.6587 22.9598 17.2902 23.0554 17.8926 23.2347L18.3767 23.3788L18.1977 22.9065L17.1102 20.0378L17.0499 19.8789L16.88 19.8765C16.2657 19.8676 15.6498 19.9274 15.0431 20.0592C14.5273 20.1711 13.9792 19.7891 13.8672 19.1181L13.8671 19.1181C13.7541 18.442 14.1481 17.8359 14.677 17.721C16.5388 17.3166 18.4744 17.4619 20.275 18.1418C20.363 18.175 20.4583 18.2632 20.5515 18.4232C20.6426 18.5795 20.7152 18.7764 20.7711 18.9776C20.8265 19.177 20.8628 19.3707 20.8852 19.5154C20.894 19.5721 20.9006 19.6208 20.9054 19.6588C20.8907 19.6788 20.8733 19.7021 20.8533 19.7282C20.7859 19.8162 20.6914 19.9325 20.5824 20.0478C20.4724 20.1641 20.3535 20.2732 20.2374 20.3516C20.1169 20.4329 20.0261 20.463 19.9669 20.463C19.9388 20.463 19.908 20.4608 19.8726 20.4569L19.4664 20.4119L19.6113 20.794L20.6642 23.5713L20.7253 23.7327H20.8979H27.5887C27.6448 23.7327 27.7018 23.7392 27.7604 23.7512L27.9341 23.7864L28.0249 23.6342L31.3558 18.0472M33.572 15.2783L33.8186 15.3195L33.572 15.2784C33.572 15.2784 33.572 15.2784 33.572 15.2783ZM33.572 15.2783C33.6318 14.9197 33.5472 14.5532 33.3488 14.2799C33.1515 14.0079 32.8674 13.8616 32.5791 13.8616H28.8692C28.3402 13.8616 27.8574 14.362 27.8574 15.0504C27.8574 15.7387 28.3402 16.2391 28.8692 16.2391H31.2149H31.4627L31.4649 16.4869C31.4683 16.8729 31.4914 17.2759 31.5338 17.6953L31.5446 17.802L31.4747 17.8833C31.4307 17.9346 31.3907 17.9886 31.3558 18.047M31.3558 18.047L31.1414 17.9191L31.3558 18.0472M31.3558 18.047L31.3558 18.0472M31.3558 18.047L31.3558 18.0472M21.3256 33.0412L21.3918 32.738H21.0813H16.0079C15.4789 32.738 14.9961 32.2375 14.9961 31.5492C14.9961 30.8608 15.479 30.3604 16.0079 30.3604H21.0813H21.3918L21.3256 30.0571C20.7399 27.3727 18.597 25.3374 16.0079 25.3374C12.9571 25.3374 10.5296 28.1556 10.5296 31.5492C10.5296 34.9427 12.9571 37.761 16.0079 37.761C18.5971 37.761 20.7399 35.7257 21.3256 33.0412ZM23.8729 30.3604H24.0149L24.0876 30.2384L26.3234 26.4883L26.5488 26.1103H26.1087H22.2794H21.8233L22.0686 26.4947C22.7445 27.5539 23.2145 28.7968 23.409 30.1461L23.4399 30.3604H23.6565H23.8729ZM34.535 27.2176L34.3739 26.8707L34.1208 27.1575C33.1261 28.2849 32.5136 29.8396 32.5136 31.5492C32.5136 34.9427 34.9411 37.7609 37.9919 37.7609C41.0427 37.7609 43.4703 34.9426 43.4703 31.5491C43.4703 28.1555 41.0428 25.3373 37.992 25.3373C37.4354 25.3373 36.8984 25.4327 36.3923 25.6082L36.132 25.6984L36.2471 25.9488C37.1977 28.0174 38.1821 29.8131 38.8166 30.8613C39.1518 31.4151 39.0214 32.169 38.5542 32.5368L38.5541 32.5368C38.3786 32.675 38.1831 32.7381 37.9931 32.7381C37.6858 32.7381 37.3702 32.5721 37.1674 32.2371C37.1104 32.1428 35.8569 30.0633 34.535 27.2176Z" fill="#89EAFF"/>
<path d="M33.572 15.2783C33.3897 16.3693 33.5064 17.6721 33.8014 19.0474C34.097 20.426 34.5755 21.8944 35.1309 23.3237L35.2233 23.5615L35.4592 23.4643C36.2511 23.1379 37.1036 22.9598 37.9919 22.9598C42.0984 22.9598 45.4936 26.7813 45.4937 31.5491C45.4937 36.3169 42.0983 40.1384 37.9919 40.1384C33.8854 40.1384 30.4901 36.3168 30.4901 31.5491C30.4901 28.8273 31.6017 26.4043 33.3228 24.8324L33.4501 24.716L33.3866 24.5557C32.95 23.4543 32.5878 22.4105 32.3 21.4258L32.139 20.8752L31.8453 21.3679L25.3862 32.202L25.3834 32.2047C25.367 32.2205 25.3427 32.2434 25.3122 32.2711C25.2508 32.3267 25.1654 32.4003 25.0686 32.4734C24.9711 32.547 24.8669 32.6162 24.7678 32.6661C24.6645 32.718 24.5883 32.7379 24.5408 32.7379H23.6565H23.4399L23.409 32.9522C22.8184 37.0485 19.7027 40.1384 16.0079 40.1384C11.9014 40.1384 8.5061 36.317 8.5061 31.5492C8.5061 26.7813 11.9014 22.9598 16.0079 22.9598C16.6587 22.9598 17.2902 23.0554 17.8926 23.2347L18.3767 23.3788L18.1977 22.9065L17.1102 20.0378L17.0499 19.8789L16.88 19.8765C16.2657 19.8676 15.6498 19.9274 15.0431 20.0592C14.5273 20.1711 13.9792 19.7891 13.8672 19.1181L13.8671 19.1181C13.7541 18.442 14.1481 17.8359 14.677 17.721C16.5388 17.3166 18.4744 17.4619 20.275 18.1418C20.363 18.175 20.4583 18.2632 20.5515 18.4232C20.6426 18.5795 20.7152 18.7764 20.7711 18.9776C20.8265 19.177 20.8628 19.3707 20.8852 19.5154C20.894 19.5721 20.9006 19.6208 20.9054 19.6588C20.8907 19.6788 20.8733 19.7021 20.8533 19.7282C20.7859 19.8162 20.6914 19.9325 20.5824 20.0478C20.4724 20.1641 20.3535 20.2732 20.2374 20.3516C20.1169 20.4329 20.0261 20.463 19.9669 20.463C19.9388 20.463 19.908 20.4608 19.8726 20.4569L19.4664 20.4119L19.6113 20.794L20.6642 23.5713L20.7253 23.7327H20.8979H27.5887C27.6448 23.7327 27.7018 23.7392 27.7604 23.7512L27.9341 23.7864L28.0249 23.6342L31.3558 18.0472M33.572 15.2783L33.8186 15.3195L33.572 15.2784C33.572 15.2784 33.572 15.2784 33.572 15.2783ZM33.572 15.2783C33.6318 14.9197 33.5472 14.5532 33.3488 14.2799C33.1515 14.0079 32.8674 13.8616 32.5791 13.8616H28.8692C28.3402 13.8616 27.8574 14.362 27.8574 15.0504C27.8574 15.7387 28.3402 16.2391 28.8692 16.2391H31.2149H31.4627L31.4649 16.4869C31.4683 16.8729 31.4914 17.2759 31.5338 17.6953L31.5446 17.802L31.4747 17.8833C31.4307 17.9346 31.3907 17.9886 31.3558 18.047M31.3558 18.047L31.1414 17.9191L31.3558 18.0472M31.3558 18.047L31.3558 18.0472M31.3558 18.047L31.3558 18.0472M21.3256 33.0412L21.3918 32.738H21.0813H16.0079C15.4789 32.738 14.9961 32.2375 14.9961 31.5492C14.9961 30.8608 15.479 30.3604 16.0079 30.3604H21.0813H21.3918L21.3256 30.0571C20.7399 27.3727 18.597 25.3374 16.0079 25.3374C12.9571 25.3374 10.5296 28.1556 10.5296 31.5492C10.5296 34.9427 12.9571 37.761 16.0079 37.761C18.5971 37.761 20.7399 35.7257 21.3256 33.0412ZM23.8729 30.3604H24.0149L24.0876 30.2384L26.3234 26.4883L26.5488 26.1103H26.1087H22.2794H21.8233L22.0686 26.4947C22.7445 27.5539 23.2145 28.7968 23.409 30.1461L23.4399 30.3604H23.6565H23.8729ZM34.535 27.2176L34.3739 26.8707L34.1208 27.1575C33.1261 28.2849 32.5136 29.8396 32.5136 31.5492C32.5136 34.9427 34.9411 37.7609 37.9919 37.7609C41.0427 37.7609 43.4703 34.9426 43.4703 31.5491C43.4703 28.1555 41.0428 25.3373 37.992 25.3373C37.4354 25.3373 36.8984 25.4327 36.3923 25.6082L36.132 25.6984L36.2471 25.9488C37.1977 28.0174 38.1821 29.8131 38.8166 30.8613C39.1518 31.4151 39.0214 32.169 38.5542 32.5368L38.5541 32.5368C38.3786 32.675 38.1831 32.7381 37.9931 32.7381C37.6858 32.7381 37.3702 32.5721 37.1674 32.2371C37.1104 32.1428 35.8569 30.0633 34.535 27.2176Z" stroke="black" stroke-width="0.5"/>
</g>
</svg>
