<svg width="127" height="51" viewBox="0 0 127 51" fill="none" xmlns="http://www.w3.org/2000/svg">
<path d="M12.8267 41.4773C10.6193 41.4773 8.7152 40.9901 7.11435 40.0156C5.52344 39.0312 4.29545 37.6591 3.4304 35.8991C2.57528 34.1293 2.14773 32.071 2.14773 29.7244C2.14773 27.3778 2.57528 25.3097 3.4304 23.5199C4.29545 21.7202 5.49858 20.3182 7.03977 19.3139C8.59091 18.2997 10.4006 17.7926 12.4688 17.7926C13.6619 17.7926 14.8402 17.9915 16.0036 18.3892C17.1669 18.7869 18.2259 19.4332 19.1804 20.3281C20.1349 21.2131 20.8956 22.3864 21.4624 23.848C22.0291 25.3097 22.3125 27.1094 22.3125 29.2472V30.7386H4.65341V27.696H18.733C18.733 26.4034 18.4744 25.25 17.9574 24.2358C17.4503 23.2216 16.7244 22.4212 15.7798 21.8345C14.8452 21.2479 13.7415 20.9545 12.4688 20.9545C11.0668 20.9545 9.85369 21.3026 8.82955 21.9986C7.81534 22.6847 7.0348 23.5795 6.48793 24.6832C5.94105 25.7869 5.66761 26.9702 5.66761 28.233V30.2614C5.66761 31.9915 5.96591 33.4581 6.5625 34.6612C7.16903 35.8544 8.00923 36.7642 9.0831 37.3906C10.157 38.0071 11.4048 38.3153 12.8267 38.3153C13.7514 38.3153 14.5866 38.1861 15.3324 37.9276C16.0881 37.6591 16.7393 37.2614 17.2862 36.7344C17.8331 36.1974 18.2557 35.5312 18.554 34.7358L21.9545 35.6903C21.5966 36.8438 20.995 37.858 20.1499 38.733C19.3047 39.598 18.2607 40.2741 17.0178 40.7614C15.7749 41.2386 14.3778 41.4773 12.8267 41.4773Z" fill="#FACA15"/>
<path d="M27.2635 41V17.7273H35.1271C36.9453 17.7273 38.4377 18.0379 39.6044 18.6591C40.7711 19.2727 41.6347 20.1174 42.1953 21.1932C42.7559 22.2689 43.0362 23.4924 43.0362 24.8636C43.0362 26.2348 42.7559 27.4508 42.1953 28.5114C41.6347 29.572 40.7749 30.4053 39.6158 31.0114C38.4567 31.6098 36.9756 31.9091 35.1726 31.9091H28.8089V29.3636H35.0817C36.3241 29.3636 37.3241 29.1818 38.0817 28.8182C38.8468 28.4545 39.3999 27.9394 39.7408 27.2727C40.0893 26.5985 40.2635 25.7955 40.2635 24.8636C40.2635 23.9318 40.0893 23.1174 39.7408 22.4205C39.3923 21.7235 38.8355 21.1856 38.0703 20.8068C37.3052 20.4205 36.2938 20.2273 35.0362 20.2273H30.0817V41H27.2635ZM38.218 30.5455L43.9453 41H40.6726L35.0362 30.5455H38.218ZM54.4993 41.3636C52.8175 41.3636 51.3667 40.9924 50.147 40.25C48.9349 39.5 47.9993 38.4545 47.3402 37.1136C46.6887 35.7652 46.3629 34.197 46.3629 32.4091C46.3629 30.6212 46.6887 29.0455 47.3402 27.6818C47.9993 26.3106 48.916 25.2424 50.0902 24.4773C51.272 23.7045 52.6508 23.3182 54.2266 23.3182C55.1357 23.3182 56.0334 23.4697 56.9197 23.7727C57.8061 24.0758 58.6129 24.5682 59.3402 25.25C60.0675 25.9242 60.647 26.8182 61.0788 27.9318C61.5107 29.0455 61.7266 30.4167 61.7266 32.0455V33.1818H48.272V30.8636H58.9993C58.9993 29.8788 58.8023 29 58.4084 28.2273C58.022 27.4545 57.469 26.8447 56.7493 26.3977C56.0372 25.9508 55.1963 25.7273 54.2266 25.7273C53.1584 25.7273 52.2341 25.9924 51.4538 26.5227C50.6811 27.0455 50.0864 27.7273 49.6697 28.5682C49.2531 29.4091 49.0447 30.3106 49.0447 31.2727V32.8182C49.0447 34.1364 49.272 35.2538 49.7266 36.1705C50.1887 37.0795 50.8288 37.7727 51.647 38.25C52.4652 38.7197 53.416 38.9545 54.4993 38.9545C55.2038 38.9545 55.8402 38.8561 56.4084 38.6591C56.9841 38.4545 57.4804 38.1515 57.897 37.75C58.3137 37.3409 58.6357 36.8333 58.8629 36.2273L61.4538 36.9545C61.1811 37.8333 60.7228 38.6061 60.0788 39.2727C59.4349 39.9318 58.6394 40.447 57.6925 40.8182C56.7455 41.1818 55.6811 41.3636 54.4993 41.3636Z" fill="white"/>
<path d="M87.4545 41V23.5455H90.1364V41H87.4545ZM88.8182 20.6364C88.2955 20.6364 87.8447 20.4583 87.4659 20.1023C87.0947 19.7462 86.9091 19.3182 86.9091 18.8182C86.9091 18.3182 87.0947 17.8902 87.4659 17.5341C87.8447 17.178 88.2955 17 88.8182 17C89.3409 17 89.7879 17.178 90.1591 17.5341C90.5379 17.8902 90.7273 18.3182 90.7273 18.8182C90.7273 19.3182 90.5379 19.7462 90.1591 20.1023C89.7879 20.4583 89.3409 20.6364 88.8182 20.6364ZM102.366 41.3636C100.685 41.3636 99.2339 40.9924 98.0142 40.25C96.8021 39.5 95.8665 38.4545 95.2074 37.1136C94.5559 35.7652 94.2301 34.197 94.2301 32.4091C94.2301 30.6212 94.5559 29.0455 95.2074 27.6818C95.8665 26.3106 96.7831 25.2424 97.9574 24.4773C99.1392 23.7045 100.518 23.3182 102.094 23.3182C103.003 23.3182 103.901 23.4697 104.787 23.7727C105.673 24.0758 106.48 24.5682 107.207 25.25C107.935 25.9242 108.514 26.8182 108.946 27.9318C109.378 29.0455 109.594 30.4167 109.594 32.0455V33.1818H96.1392V30.8636H106.866C106.866 29.8788 106.67 29 106.276 28.2273C105.889 27.4545 105.336 26.8447 104.616 26.3977C103.904 25.9508 103.063 25.7273 102.094 25.7273C101.026 25.7273 100.101 25.9924 99.321 26.5227C98.5483 27.0455 97.9536 27.7273 97.5369 28.5682C97.1203 29.4091 96.9119 30.3106 96.9119 31.2727V32.8182C96.9119 34.1364 97.1392 35.2538 97.5938 36.1705C98.0559 37.0795 98.696 37.7727 99.5142 38.25C100.332 38.7197 101.283 38.9545 102.366 38.9545C103.071 38.9545 103.707 38.8561 104.276 38.6591C104.851 38.4545 105.348 38.1515 105.764 37.75C106.181 37.3409 106.503 36.8333 106.73 36.2273L109.321 36.9545C109.048 37.8333 108.59 38.6061 107.946 39.2727C107.302 39.9318 106.507 40.447 105.56 40.8182C104.613 41.1818 103.548 41.3636 102.366 41.3636Z" fill="white"/>
<path d="M67.2316 30.1327C66.9808 30.2814 66.6812 30.3244 66.3986 30.2522C66.1161 30.18 65.8738 29.9986 65.725 29.7478L63.2947 25.6349C63.1016 25.3006 63 24.9213 63 24.5352C63 24.1492 63.1016 23.7699 63.2947 23.4355C63.4821 23.0725 63.7637 22.7666 64.1101 22.5499C64.4564 22.3331 64.8547 22.2136 65.2632 22.2039H70.2229L69.893 21.885C69.6859 21.6779 69.5695 21.397 69.5695 21.1042C69.5695 20.8113 69.6859 20.5305 69.893 20.3234C70.1 20.1163 70.3809 20 70.6738 20C70.9666 20 71.2475 20.1163 71.4545 20.3234L73.654 22.5228C73.8426 22.7261 73.9474 22.9932 73.9474 23.2706C73.9474 23.5479 73.8426 23.815 73.654 24.0184L71.7845 26.2178C71.5949 26.4394 71.325 26.5767 71.0342 26.5994C70.7434 26.6221 70.4555 26.5283 70.2339 26.3387C70.0122 26.1492 69.8749 25.8793 69.8522 25.5885C69.8296 25.2977 69.9233 25.0098 70.1129 24.7882L70.4978 24.4033H65.2742C65.2603 24.3972 65.2453 24.3941 65.2302 24.3941C65.215 24.3941 65.2001 24.3972 65.1862 24.4033L67.6165 28.6261C67.7652 28.8769 67.8082 29.1765 67.7361 29.4591C67.6639 29.7416 67.4824 29.9839 67.2316 30.1327ZM84.6511 23.3036C84.4388 22.97 84.1465 22.6947 83.8009 22.5027C83.4552 22.3106 83.067 22.2079 82.6716 22.2039L78.3718 22.2589C78.0801 22.2589 77.8004 22.3747 77.5941 22.581C77.3879 22.7872 77.272 23.0669 77.272 23.3586C77.272 23.6502 77.3879 23.9299 77.5941 24.1362C77.8004 24.3424 78.0801 24.4583 78.3718 24.4583H82.7706C82.7835 24.49 82.7835 24.5255 82.7706 24.5572L80.1533 29.077L79.9883 28.6041C79.9471 28.4595 79.8766 28.3248 79.7813 28.2085C79.686 28.0922 79.5678 27.9966 79.4341 27.9278C79.3003 27.859 79.1539 27.8183 79.0038 27.8083C78.8538 27.7983 78.7032 27.8192 78.5616 27.8697C78.4199 27.9202 78.2901 27.9992 78.1802 28.1018C78.0702 28.2045 77.9825 28.3286 77.9225 28.4665C77.8624 28.6044 77.8313 28.7531 77.831 28.9035C77.8308 29.0539 77.8613 29.2028 77.9209 29.3409L78.8886 32.0571C78.9636 32.2717 79.1033 32.4578 79.2884 32.5897C79.4736 32.7217 79.695 32.793 79.9224 32.7939C80.0171 32.8091 80.1136 32.8091 80.2083 32.7939L83.2105 31.9911C83.3542 31.9577 83.4898 31.8956 83.609 31.8086C83.7283 31.7216 83.8288 31.6116 83.9046 31.4849C83.9804 31.3583 84.0299 31.2177 84.0502 31.0715C84.0705 30.9253 84.0612 30.7766 84.0228 30.634C83.9844 30.4915 83.9177 30.3582 83.8267 30.242C83.7357 30.1258 83.6223 30.0292 83.4931 29.9578C83.3639 29.8863 83.2217 29.8417 83.0749 29.8264C82.9281 29.8111 82.7798 29.8255 82.6386 29.8687L82.1988 29.9897L84.6841 25.6899C84.8964 25.3269 85.0056 24.9127 84.9998 24.4922C84.994 24.0716 84.8734 23.6606 84.6511 23.3036ZM77.9099 35.1803C77.656 35.0378 77.3561 35.0018 77.0757 35.0801C76.7954 35.1584 76.5575 35.3447 76.4143 35.5981L73.9729 39.799L71.3226 35.2242L71.8175 35.3122C72.1091 35.3647 72.4097 35.2992 72.653 35.1301C72.8964 34.961 73.0626 34.7021 73.1151 34.4105C73.1676 34.1188 73.1021 33.8182 72.933 33.5749C72.7639 33.3315 72.505 33.1653 72.2134 33.1128L69.3761 32.596C69.1044 32.5448 68.8233 32.5978 68.5889 32.7446C68.3546 32.8913 68.1841 33.121 68.1114 33.3878L67.3086 36.3899C67.2704 36.53 67.2604 36.6763 67.279 36.8203C67.2976 36.9643 67.3446 37.1032 67.4172 37.2289C67.4898 37.3547 67.5866 37.4648 67.7019 37.5529C67.8173 37.6411 67.949 37.7055 68.0894 37.7425C68.1844 37.7533 68.2803 37.7533 68.3753 37.7425C68.6236 37.751 68.8675 37.6752 69.0672 37.5275C69.2668 37.3797 69.4106 37.1687 69.4751 36.9288L69.596 36.4889L72.0374 40.8987C72.2397 41.2316 72.5236 41.5074 72.8623 41.6998C73.2011 41.8923 73.5833 41.995 73.9729 41.9983C74.3779 42.0139 74.7796 41.9199 75.1357 41.7264C75.4917 41.5329 75.7891 41.2469 75.9964 40.8987L78.3718 36.6868C78.4423 36.558 78.4864 36.4164 78.5013 36.2703C78.5163 36.1241 78.5018 35.9765 78.4587 35.8361C78.4157 35.6957 78.3449 35.5653 78.2507 35.4526C78.1564 35.34 78.0405 35.2474 77.9099 35.1803Z" fill="white"/>
</svg>
