<svg width="216" height="245" viewBox="0 0 216 245" fill="none" xmlns="http://www.w3.org/2000/svg">
<path d="M54 51.0126C53.5958 51.0165 53.2006 50.8914 52.8725 50.6551C52.0475 50.1326 32.6875 37.1251 32.6875 21.3126C32.6875 15.6601 34.9329 10.2392 38.9298 6.24228C42.9267 2.24543 48.3476 0 54 0C59.6524 0 65.0734 2.24543 69.0703 6.24228C73.0671 10.2392 75.3125 15.6601 75.3125 21.3126C75.3125 37.1251 56.0625 50.1326 55.1275 50.6551C54.7994 50.8914 54.4043 51.0165 54 51.0126ZM54 4.2625C49.4609 4.24787 45.1016 6.03512 41.8791 9.23186C38.6565 12.4286 36.8343 16.7735 36.8125 21.3126C36.8125 32.8901 49.985 43.4776 54 46.4201C58.015 43.4776 71.1875 32.8901 71.1875 21.3126C71.1658 16.7735 69.3434 12.4286 66.1209 9.23186C62.8985 6.03512 58.5392 4.24787 54 4.2625Z" fill="#F796FF"/>
<path d="M54 27.6376C52.5043 27.6376 51.0421 27.1941 49.7986 26.363C48.5547 25.5322 47.5856 24.3511 47.0132 22.9692C46.4408 21.5874 46.291 20.0668 46.5828 18.5998C46.8746 17.1328 47.5949 15.7853 48.6526 14.7277C49.7103 13.67 51.0578 12.9498 52.5246 12.6579C53.9918 12.3661 55.5122 12.5159 56.8941 13.0883C58.276 13.6607 59.4571 14.63 60.2879 15.8736C61.1189 17.1173 61.5625 18.5794 61.5625 20.0751C61.5625 22.0807 60.7658 24.0043 59.3474 25.4225C57.9292 26.841 56.0056 27.6376 54 27.6376ZM54 16.6376C53.3202 16.6376 52.6555 16.8392 52.0901 17.217C51.525 17.5947 51.0845 18.1316 50.8243 18.7597C50.5639 19.3878 50.496 20.079 50.6285 20.7459C50.7613 21.4125 51.0886 22.0252 51.5693 22.5059C52.05 22.9866 52.6627 23.3141 53.3293 23.4466C53.9962 23.5792 54.6872 23.5113 55.3156 23.2511C55.9437 22.9907 56.4805 22.5501 56.8581 21.985C57.2359 21.4196 57.4375 20.7549 57.4375 20.0751C57.4375 19.1635 57.0753 18.2891 56.4307 17.6445C55.7861 16.9998 54.9116 16.6376 54 16.6376Z" fill="#F796FF"/>
<path d="M56.5428 55.3271C0.708086 111.197 26.0429 172.827 73.0429 149.827C120.043 126.827 163.553 136.225 191.543 186.327" stroke="black" stroke-width="3"/>
<circle cx="197.5" cy="194.075" r="18.5" fill="#4ADDFF"/>
<g opacity="0.4" filter="url(#filter0_d_11_36)">
<mask id="path-5-inside-1_11_36" fill="white">
<path d="M52.4003 129.075V88.4847C52.4003 83.376 54.9421 80.8088 60 80.8088H75.8344C80.8923 80.8088 83.4086 83.376 83.4086 88.4847V129.075"/>
</mask>
<path d="M52.4003 129.075V88.4847C52.4003 83.376 54.9421 80.8088 60 80.8088H75.8344C80.8923 80.8088 83.4086 83.376 83.4086 88.4847V129.075" fill="black"/>
<path d="M53.4003 129.075V88.4847H51.4003V129.075H53.4003ZM53.4003 88.4847C53.4003 86.0833 53.9972 84.4616 55.014 83.4346C56.0291 82.4094 57.629 81.8088 60 81.8088V79.8088C57.3131 79.8088 55.1132 80.4918 53.5928 82.0274C52.0742 83.5612 51.4003 85.7774 51.4003 88.4847H53.4003ZM60 81.8088H75.8344V79.8088H60V81.8088ZM75.8344 81.8088C78.2054 81.8088 79.7976 82.4093 80.8058 83.4328C81.8167 84.459 82.4086 86.0807 82.4086 88.4847H84.4086C84.4086 85.7799 83.7423 83.5638 82.2306 82.0292C80.7162 80.4919 78.5213 79.8088 75.8344 79.8088V81.8088ZM82.4086 88.4847V129.075H84.4086V88.4847H82.4086Z" fill="black" mask="url(#path-5-inside-1_11_36)"/>
</g>
<path d="M73.325 97.4501H60.7437C59.7016 97.4501 58.8374 96.586 58.8374 95.5439C58.8374 94.5018 59.7016 93.6376 60.7437 93.6376H73.325C74.367 93.6376 75.2312 94.5018 75.2312 95.5439C75.2312 96.586 74.367 97.4501 73.325 97.4501Z" fill="#292D32"/>
<path d="M73.325 106.981H60.7437C59.7016 106.981 58.8374 106.117 58.8374 105.075C58.8374 104.033 59.7016 103.169 60.7437 103.169H73.325C74.367 103.169 75.2312 104.033 75.2312 105.075C75.2312 106.117 74.367 106.981 73.325 106.981Z" fill="#292D32"/>
<path d="M66.9688 132.398C65.9267 132.398 65.0625 131.534 65.0625 130.492V120.961C65.0625 119.918 65.9267 119.054 66.9688 119.054C68.0108 119.054 68.875 119.918 68.875 120.961V130.492C68.875 131.534 68.0108 132.398 66.9688 132.398Z" fill="#292D32"/>
<path d="M104.458 128.586H98.6888V120.961C101.103 120.173 102.857 117.911 102.857 115.242V110.159C102.857 106.829 100.138 104.11 96.8079 104.11C93.4784 104.11 90.7588 106.829 90.7588 110.159V115.242C90.7588 117.885 92.4871 120.122 94.8509 120.935V128.586H48.5417C47.4996 128.586 46.6354 129.45 46.6354 130.492C46.6354 131.534 47.4996 132.398 48.5417 132.398H96.6554C96.7063 132.398 96.7317 132.424 96.7825 132.424C96.8334 132.424 96.8588 132.398 96.9096 132.398H104.458C105.5 132.398 106.365 131.534 106.365 130.492C106.365 129.45 105.5 128.586 104.458 128.586Z" fill="#292D32"/>
<path d="M163.333 205.575H158.667V203.242C159.285 203.242 159.879 202.996 160.317 202.558C160.754 202.121 161 201.527 161 200.908C161 200.29 160.754 199.696 160.317 199.259C159.879 198.821 159.285 198.575 158.667 198.575V196.242C159.285 196.242 159.879 195.996 160.317 195.558C160.754 195.121 161 194.527 161 193.908C161 193.29 160.754 192.696 160.317 192.259C159.879 191.821 159.285 191.575 158.667 191.575V189.242C158.667 188.623 158.421 188.029 157.983 187.592C157.546 187.154 156.952 186.908 156.333 186.908C155.714 186.908 155.121 187.154 154.683 187.592C154.246 188.029 154 188.623 154 189.242V191.575H140V189.242C140 188.623 139.754 188.029 139.317 187.592C138.879 187.154 138.285 186.908 137.667 186.908C137.048 186.908 136.454 187.154 136.017 187.592C135.579 188.029 135.333 188.623 135.333 189.242V191.575C134.714 191.575 134.121 191.821 133.683 192.259C133.246 192.696 133 193.29 133 193.908C133 194.527 133.246 195.121 133.683 195.558C134.121 195.996 134.714 196.242 135.333 196.242V198.575C134.714 198.575 134.121 198.821 133.683 199.259C133.246 199.696 133 200.29 133 200.908C133 201.527 133.246 202.121 133.683 202.558C134.121 202.996 134.714 203.242 135.333 203.242V205.575H128.333V186.675C130.967 186.134 133.333 184.701 135.033 182.618C136.733 180.535 137.663 177.93 137.667 175.242V170.575C137.667 167.481 136.437 164.513 134.25 162.326C132.062 160.138 129.094 158.908 126 158.908C122.906 158.908 119.938 160.138 117.75 162.326C115.562 164.513 114.333 167.481 114.333 170.575V175.242C114.337 177.93 115.267 180.535 116.967 182.618C118.667 184.701 121.033 186.134 123.667 186.675V205.575H116.667C116.048 205.575 115.454 205.821 115.017 206.259C114.579 206.696 114.333 207.29 114.333 207.908C114.333 208.527 114.579 209.121 115.017 209.558C115.454 209.996 116.048 210.242 116.667 210.242H163.333C163.952 210.242 164.546 209.996 164.983 209.558C165.421 209.121 165.667 208.527 165.667 207.908C165.667 207.29 165.421 206.696 164.983 206.259C164.546 205.821 163.952 205.575 163.333 205.575ZM119 175.242V170.575C119 168.719 119.737 166.938 121.05 165.625C122.363 164.313 124.143 163.575 126 163.575C127.856 163.575 129.637 164.313 130.95 165.625C132.262 166.938 133 168.719 133 170.575V175.242C133 177.098 132.262 178.879 130.95 180.192C129.637 181.504 127.856 182.242 126 182.242C124.143 182.242 122.363 181.504 121.05 180.192C119.737 178.879 119 177.098 119 175.242ZM140 196.242H154V198.575H140V196.242ZM140 203.242H154V205.575H140V203.242Z" fill="black"/>
<defs>
<filter id="filter0_d_11_36" x="48.4003" y="80.8088" width="39.0083" height="56.2663" filterUnits="userSpaceOnUse" color-interpolation-filters="sRGB">
<feFlood flood-opacity="0" result="BackgroundImageFix"/>
<feColorMatrix in="SourceAlpha" type="matrix" values="0 0 0 0 0 0 0 0 0 0 0 0 0 0 0 0 0 0 127 0" result="hardAlpha"/>
<feOffset dy="4"/>
<feGaussianBlur stdDeviation="2"/>
<feComposite in2="hardAlpha" operator="out"/>
<feColorMatrix type="matrix" values="0 0 0 0 0 0 0 0 0 0 0 0 0 0 0 0 0 0 0.25 0"/>
<feBlend mode="normal" in2="BackgroundImageFix" result="effect1_dropShadow_11_36"/>
<feBlend mode="normal" in="SourceGraphic" in2="effect1_dropShadow_11_36" result="shape"/>
</filter>
</defs>
</svg>
