<svg width="247" height="190" viewBox="0 0 247 190" fill="none" xmlns="http://www.w3.org/2000/svg">
<g filter="url(#filter0_d_11_35)">
<path fill-rule="evenodd" clip-rule="evenodd" d="M146.812 0V23.8019H202.187L127.223 98.7524L97.0774 68.6107L4 161.686L20.828 178.514L97.0774 102.262L110.395 115.593L110.359 115.628L127.187 132.456L218.217 41.4267V95.2077H242.019V0H146.812Z" fill="#F796FF"/>
<path d="M111.685 157.616C111.685 160.914 114.358 163.587 117.656 163.587C120.954 163.587 123.627 160.914 123.627 157.616H111.685ZM117.656 127.76H123.627C123.627 126.177 122.998 124.658 121.878 123.538L117.656 127.76ZM96.7575 106.862L92.8256 102.368C91.5818 103.456 90.8447 105.011 90.7897 106.663C90.7347 108.315 91.3668 109.915 92.5353 111.084L96.7575 106.862ZM120.642 85.9628L125.176 82.0769C124.138 80.8665 122.659 80.1213 121.069 80.0071C119.479 79.893 117.909 80.4194 116.71 81.4691L120.642 85.9628ZM156.468 115.818C159.766 115.818 162.439 113.145 162.439 109.847C162.439 106.549 159.766 103.876 156.468 103.876V115.818ZM93.772 151.645C93.772 161.538 85.7519 169.558 75.8588 169.558V181.5C92.3474 181.5 105.714 168.133 105.714 151.645H93.772ZM75.8588 169.558C65.9656 169.558 57.9456 161.538 57.9456 151.645H46.0034C46.0034 168.133 59.3701 181.5 75.8588 181.5V169.558ZM57.9456 151.645C57.9456 141.751 65.9656 133.731 75.8588 133.731V121.789C59.3701 121.789 46.0034 135.156 46.0034 151.645H57.9456ZM75.8588 133.731C85.7519 133.731 93.772 141.751 93.772 151.645H105.714C105.714 135.156 92.3474 121.789 75.8588 121.789V133.731ZM123.627 157.616V127.76H111.685V157.616H123.627ZM121.878 123.538L100.98 102.639L92.5353 111.084L113.434 131.982L121.878 123.538ZM100.689 111.355L124.574 90.4566L116.71 81.4691L92.8256 102.368L100.689 111.355ZM116.108 89.8488C119.175 93.4272 124.841 99.7375 131.706 105.192C138.357 110.478 147.184 115.818 156.468 115.818V103.876C151.421 103.876 145.321 100.758 139.135 95.8423C133.162 91.0965 128.079 85.4647 125.176 82.0769L116.108 89.8488ZM177.367 151.645C177.367 161.538 169.347 169.558 159.454 169.558V181.5C175.942 181.5 189.309 168.133 189.309 151.645H177.367ZM159.454 169.558C149.56 169.558 141.541 161.538 141.541 151.645H129.598C129.598 168.133 142.965 181.5 159.454 181.5V169.558ZM141.541 151.645C141.541 141.751 149.56 133.731 159.454 133.731V121.789C142.965 121.789 129.598 135.156 129.598 151.645H141.541ZM159.454 133.731C169.347 133.731 177.367 141.751 177.367 151.645H189.309C189.309 135.156 175.942 121.789 159.454 121.789V133.731ZM141.541 68.0496V79.9918C148.136 79.9918 153.483 74.6451 153.483 68.0496H141.541ZM141.541 68.0496H129.598C129.598 74.6451 134.945 79.9918 141.541 79.9918V68.0496ZM141.541 68.0496V56.1075C134.945 56.1075 129.598 61.4542 129.598 68.0496H141.541ZM141.541 68.0496H153.483C153.483 61.4542 148.136 56.1075 141.541 56.1075V68.0496Z" fill="black"/>
</g>
<defs>
<filter id="filter0_d_11_35" x="0" y="0" width="246.019" height="189.5" filterUnits="userSpaceOnUse" color-interpolation-filters="sRGB">
<feFlood flood-opacity="0" result="BackgroundImageFix"/>
<feColorMatrix in="SourceAlpha" type="matrix" values="0 0 0 0 0 0 0 0 0 0 0 0 0 0 0 0 0 0 127 0" result="hardAlpha"/>
<feOffset dy="4"/>
<feGaussianBlur stdDeviation="2"/>
<feComposite in2="hardAlpha" operator="out"/>
<feColorMatrix type="matrix" values="0 0 0 0 0 0 0 0 0 0 0 0 0 0 0 0 0 0 0.25 0"/>
<feBlend mode="normal" in2="BackgroundImageFix" result="effect1_dropShadow_11_35"/>
<feBlend mode="normal" in="SourceGraphic" in2="effect1_dropShadow_11_35" result="shape"/>
</filter>
</defs>
</svg>
